<?xml version="1.0" encoding="UTF-8"?>
<svg id="Layer_1" xmlns="http://www.w3.org/2000/svg" version="1.1" viewBox="0 0 128 128">
  <!-- Generator: Adobe Illustrator 30.1.0, SVG Export Plug-In . SVG Version: 2.1.1 Build 136)  -->
  <defs>
    <style>
      .st0 {
        fill: #3bb2bf;
      }

      .st1 {
        fill: #080326;
      }
    </style>
  </defs>
  <path class="st0" d="M123.5,38.8c-2.3-1.8-4.6-3.6-6.9-5.4-2.2-1.7-5.2-1.1-7.1,1.3-1,1.2-1.9,2.4-2.8,3.6l-.8,1c0,0-.1.2-.2.3h0c0,0,1.1.8,1.1.8l.3.2,11.9,9.3,1.3,1,1.1-1.4c.9-1.1,1.8-2.2,2.6-3.4,1.9-2.5,1.8-5.5-.4-7.2Z"/>
  <path class="st0" d="M103.6,42.1l-2.4,3-5.3,6.9c-6.6,8.6-13.2,17.1-19.8,25.7-.5.7-.9,1.5-1.2,2.2-1.4,3.9-2.7,7.8-4,11.6l-.9,2.8c-.2.7-.4,1.3-.4,2,0,1.9,1.2,3.5,3,3.6.5,0,1.1,0,1.7-.2.5-.2,1.1-.5,1.7-.9l2.3-1.5c2.8-1.8,5.6-3.7,8.4-5.6l.4-.3c1.2-.8,2.7-1.8,3.9-3.3,3.5-4.6,7-9.1,10.5-13.7l15.2-19.7c.1-.1.2-.2.3-.3l1-1.3-14.3-11.1ZM107.8,48.9l2.3,1.7-25.2,32.7c-1.2-.3-1.9-1-2.3-1.6l25.3-32.8ZM98.2,53.8l5.9-7.6.8.7,1.3,1-25,32.5c-1.4-.2-2-.9-2.3-1.5,6.4-8.4,12.9-16.7,19.3-25ZM85.5,89.1l-.4.2c-2.1,1.4-4,2.7-5.8,3.8-.9-.7-1.8-1.4-2.6-2l-2.1-1.6c1-2.9,2-5.8,3-8.7,0-.2.2-.5.3-.7.6.7,1.4,1.4,2.8,1.6.3.7.8,1.5,1.7,2.2.7.5,1.6,1,2.7,1.1.3.9,1.1,2,2.4,2.6-.6.6-1.3,1-2,1.5h0ZM99.2,72.8c-3.5,4.6-7,9.1-10.5,13.7-1.5-.4-2-1.6-2.1-2.1l25-32.5.5.4h0s1.9,1.5,1.9,1.5l-14.7,19Z"/>
  <path class="st1" d="M100.8,107.4v-9.5s0-13,0-13c-1.8,2.3-3.5,4.5-5.2,6.8-1.1,1.5-2.4,2.6-3.5,3.4,0,8.3,0,15.7,0,20.9v.4h-.2v1.5-1.5c-20.6,0-41.2,0-61.8,0H11.6V41.6h11.6c2.4,0,4.8,0,7.3,0,3,0,5.8-1.1,7.8-3.2,2-2,3-4.7,3-7.7,0-3.7,0-7.4,0-11.1,0-2.6,0-5.2,0-7.7v-.2h.3c16.9,0,33.7,0,50.6,0h.2v.2c0,4.3,0,8.7,0,13v22.7l8.7-11.2v-1.9h0V11.1c0-5-3.1-8.1-8.1-8.1h-57.6c-1.3,0-2.3.4-3.2,1.3C22.8,13.7,13.5,22.9,4.2,32.1c-1.1,1.1-1.5,2.2-1.5,3.6,0,19.9,0,39.9,0,59.8v21.7c0,4.6,3,7.6,7.5,7.7,1.7,0,3.4,0,5,0h44.4c11.1,0,22.2,0,33.3,0,2.3,0,4.2-.8,5.7-2.3,1.5-1.5,2.2-3.5,2.2-5.8,0-3.2,0-6.3,0-9.5Z"/>
  <path class="st0" d="M82.6,54.5c0,1.3-1.1,2.3-2.3,2.3H24.3c-1.3,0-2.3-1-2.3-2.3s1.1-2.3,2.3-2.3h55.9c1.3,0,2.3,1.1,2.3,2.3Z"/>
  <path class="st0" d="M77.2,69.2l-3.6,4.6H24.3c-1.3,0-2.3-1-2.3-2.3s1.1-2.3,2.3-2.3h52.8Z"/>
  <path class="st0" d="M68.1,86.3c0,.3-.2.6-.3,1l-1.2,3.7H24.3c-1.3,0-2.3-1-2.3-2.3s1.1-2.3,2.3-2.3h43.8Z"/>
  <path class="st0" d="M82.6,105.6c0,1.3-1.1,2.3-2.3,2.3H24.3c-1.3,0-2.3-1.1-2.3-2.3s1.1-2.3,2.3-2.3h55.9c1.3,0,2.3,1.1,2.3,2.3Z"/>
</svg>