<?xml version="1.0" encoding="UTF-8"?>
<svg id="Layer_1" xmlns="http://www.w3.org/2000/svg" version="1.1" viewBox="0 0 128 128">
  <!-- Generator: Adobe Illustrator 30.1.0, SVG Export Plug-In . SVG Version: 2.1.1 Build 136)  -->
  <defs>
    <style>
      .st0 {
        fill: #3bb2bf;
      }

      .st1 {
        fill: #080326;
      }
    </style>
  </defs>
  <path class="st1" d="M126,61c-2.7-9.4-11.1-15.7-20.9-15.8h-2.2c.5-8.3-1.2-14.9-5.2-20.7-4.8-6.9-11.1-11.3-19.4-13.2-2-.5-4.1-.7-6.3-.7-8.4,0-19.8,3.9-26.8,14.3-2.7-1.2-5.8-1.9-8.9-1.9-11.7,0-21.4,9.1-22.2,20.6-1.4.7-2.7,1.5-3.9,2.5-3.3,2.6-5.8,6-7.4,9.9-2.5,6.3-2.2,13.4,1,19.4,3.4,6.5,8.6,10.6,15.2,12.2,0,0,6.2,0,13.6.1v-3.3c0-1.2.2-2.4.6-3.5h-7.8c-7,0-12-2.9-15.2-9-2.2-4.1-2.4-9-.7-13.3,1.1-2.7,2.8-5,5.1-6.8,0,0,.2-.1.2-.2,1.1-.8,2.2-1.5,3.4-2,0,0,.4-.1.6-.2.7-.2,1.7-.5,2.7-1.1-.2-1-.4-2.1-.4-3.2,0-8.2,6.7-14.9,14.9-14.9s7.8,1.7,10.5,4.4c1.2-.4,2.2-1.3,2.7-2.4.6-1.2,1.2-2.3,1.9-3.4,5.4-8,14.2-11,20.6-11s3.2.2,4.6.5c6.4,1.5,11.3,4.8,15,10.2,3.3,4.8,4.5,10.6,3.8,18.1v.8c-.2,1.3.2,2.6,1.1,3.6.9.9,2.1,1.5,3.4,1.5h5.1c6.5,0,12,4.2,13.8,10.4,1.2,4.1.4,8.5-2.2,12.1-2.6,3.5-6.5,5.6-10.8,5.8-1.2,0-2.4,0-4.1,0h-7.2c.4,1,.6,2.1.6,3.3,0,1.4,0,2.7,0,4,1.2,0,1.9,0,1.9,0,.8,0,1.5,0,2.3,0h2.3c1.7,0,3,0,4.3,0,6.6-.2,12.6-3.4,16.5-8.8,3.9-5.4,5.2-12.1,3.4-18.5Z"/>
  <path class="st0" d="M89.4,111.5v-17.5c0-3.2,0-6.4,0-9.6,0-2.2-1.2-3.5-3.4-3.8-.6-.1-.8-.3-.8-.9,0-3.1,0-6.2-.1-9.3-.1-3.1-1.2-5.9-2.8-8.4-3.3-5.1-7.9-8.5-13.8-9.8-.6-.1-1.3-.2-1.9-.3-.6,0-1.3-.1-1.9-.3h-1.2c-1.7.3-3.2.4-4.7.8-7.9,2.3-13.2,7.4-15.4,15.4-.8,2.7-.6,5.6-.6,8.4v4.4c-.4,0-.8.1-1.1.2-1.8.4-3,1.8-3,3.6v19.5c0,3,0,6,0,8.9,0,2.6.6,3.7,2.8,4.6h45.2c1.3-.5,2.2-1.4,2.5-2.8.2-1,.2-2.1.2-3.2ZM67.9,100.5c-.7.5-.9,1.1-.9,1.9,0,1.9,0,3.7,0,5.6,0,1.5-.8,2.6-2.1,3-1.2.4-2.3.1-3.2-.9-.3-.4-.6-1-.7-1.5-.1-1.2,0-2.4,0-3.6h0v-1c0-1.6-.1-3-1.7-4.3-2.4-2-2.6-5.2-1.2-7.9,1.4-2.5,4.4-4,7.1-3.4,2.7.6,4.6,2.3,5.2,5.1.7,2.8-.3,5.2-2.6,6.9ZM77.2,79.7c0,.7-.2,1-.9,1-4.1,0-8.2,0-12.3,0h-12.1c-1,0-1.1,0-1.1-1.1,0-2.5-.1-5,0-7.5.2-4.1,2.2-7.4,5.5-9.8,6.2-4.6,15.2-2.7,19.1,4,1.2,2.1,1.9,4.3,1.8,6.7,0,2.3,0,4.5,0,6.7Z"/>
</svg>