<?xml version="1.0" encoding="UTF-8"?>
<svg id="Layer_2" data-name="Layer 2" xmlns="http://www.w3.org/2000/svg" viewBox="0 0 500 500">
  <defs>
    <style>
      .cls-1 {
        fill: #76b7c2;
      }

      .cls-2 {
        fill: #f6f6f6;
      }

      .cls-3 {
        fill: #0b0433;
      }
    </style>
  </defs>
  <g id="Layer_1-2" data-name="Layer 1">
    <path class="cls-3" d="M280.54,310.49c-11.11,2.79-27.7,3.93-36.57,2.52-31.65-5.05-56.32-20.71-73.65-46.74-9.18-13.78-14.45-28.6-16.41-46.08-4.72-42.09,17.65-82.36,56.66-101.96,22.27-11.19,47.28-13.92,71.62-7.81,40,10.03,69.5,42.89,76.33,85.03,1.88,11.56,1.86,19.08-.06,30.17-4.73,27.29-17.13,48.61-37.78,64.97-10.62,8.42-27.24,16.65-40.14,19.9ZM169.98,249.61c2.33,5.15,3.34,6.43,4.74,6.03,3.3-.95,44.69-11.86,55.21-14.56,5.74-1.47,10.57-3.1,10.74-3.63.17-.52-2.5-2.48-5.93-4.35-3.43-1.87-9.84-5.52-14.24-8.11-26.44-15.57-54.05-31.32-55.6-31.73-2.08-.54-2.56,1-3.22,10.24-1.02,14.24,2.36,33.01,8.3,46.11ZM251.02,174.39l-3.32,5.88,2.9-.48c1.59-.27,15.95-3.98,31.9-8.25,15.95-4.27,33.95-9.09,40-10.71s11.36-3.3,11.81-3.74c1.47-1.47-12.32-16.71-20.81-22.99-9.38-6.94-24.09-14.1-28.98-14.1-1.7,0-4,3.26-11.48,16.25-5.15,8.94-11.46,19.85-14.03,24.25-2.57,4.4-6.17,10.65-7.99,13.89ZM241.25,304.29c1.24.24,7.73.5,14.43.57,16.21.18,26.8-2,40.66-8.4,4.94-2.27,5.77-3.03,5.34-4.83-.72-2.99-4.08-15.73-6.5-24.63-1.12-4.12-3.64-13.57-5.6-21-4.54-17.18-5.08-19.24-5.8-19.31-.1-.01-.2.02-.31.05h-.04c-1.28.35-44.43,74.36-44.43,76.21,0,.5,1.01,1.11,2.25,1.34ZM307.06,279.75c1.19,4.54,2.69,8.25,3.35,8.25,3.53,0,19.66-16.47,26.46-27,5.37-8.34,11.31-23.22,9.82-24.64-1.09-1.05-42.31-25-54.44-31.64-4.24-2.32-5.25-2.57-5.25-1.29,0,.87,1.74,7.99,3.87,15.82,2.13,7.84,5.12,18.98,6.64,24.75,1.52,5.77,3.81,14.33,5.08,19s3.29,12.21,4.47,16.75ZM310.26,205.68c21.03,12.2,38.53,22.21,38.88,22.25.74.08,1.52-3.93,2.41-12.43.63-5.96-.58-18.41-2.7-28-1.72-7.74-7.89-22.5-9.41-22.5-.74,0-3.73.63-6.64,1.41-2.92.78-17.19,4.6-31.72,8.5-14.53,3.9-27.02,7.09-27.75,7.09s-1.32.34-1.32.75c0,.41,17.22,10.73,38.25,22.93ZM224.41,218.02c1.19,1.18,2.63.26,2.05-1.3-.25-.67-5.43-19.89-11.52-42.7-6.08-22.81-11.25-41.66-11.47-41.88-1.46-1.46-16.69,12.71-23.32,21.7-5.72,7.75-12.7,21.22-13.66,26.39l-.68,3.58,12.35,7.21c6.79,3.96,15.27,8.89,18.84,10.94,3.57,2.06,9.88,5.71,14,8.12,4.12,2.42,8.62,4.99,10,5.72s2.91,1.73,3.41,2.22ZM228.57,193.92c.57,1.63,1.48.52,5.67-6.92,1.39-2.48,6.32-11.02,10.95-19,25.79-44.38,29.01-50.2,28.19-51.02-1.88-1.87-18.69-2.24-29.38-.63-13.09,1.97-30.67,7.7-32.45,10.57-.29.47,1.74,9.35,4.51,19.72s6.61,24.93,8.53,32.36,3.71,14.14,3.98,14.92ZM223.99,299.56c1.93.72,4.19,1.32,5.01,1.35.9.03,4.58-5.4,9.27-13.68,4.28-7.55,12.05-21.11,17.27-30.13,5.22-9.03,9.33-16.57,9.13-16.76-.19-.19-1.66.07-3.26.59-1.6.51-14.39,3.93-28.41,7.6-1.67.44-3.29.86-4.86,1.27-43.89,11.48-49.48,12.94-49.48,14.39,0,.26.19.53.36.85,1.96,3.65,16.58,18.29,22.4,22.41,6.18,4.39,16.22,9.77,22.57,12.11ZM246.18,230.6c4.03,2.37,7.9,4.12,8.6,3.88.71-.24,4.07-1.16,7.48-2.05,3.41-.88,6.94-2,7.86-2.49.91-.49,3.71-4.39,6.22-8.67l4.56-7.77-2.26-8.99-2.26-8.99-8.06-4.8-8.06-4.81-9.36,2.35-9.36,2.35-9.56,16.59,2.17,8.15c1.19,4.48,2.74,8.78,3.44,9.54.7.77,4.56,3.34,8.59,5.71ZM420.15,413.92c-1.11.59-7.02,1.08-13.14,1.08h-11.12l.3-4.25c.27-3.68.65-4.3,2.81-4.58,3.78-.51,4.07-1.29,2.47-6.6-1.11-3.71-1.47-10.61-1.47-28.61,0-22.89-.07-23.75-2-24.25-1.59-.42-2-1.36-2-4.62v-4.09h12.78l.48,29.25c.34,21.46.85,30.45,1.9,33.75.79,2.48,1.86,4.5,2.38,4.5.58,0,1.06-11.39,1.23-28.95.23-25.02.06-29.07-1.25-29.8-.96-.54-1.52-2.31-1.52-4.8v-3.95h13v34.03c0,36.17-.39,39.5-4.85,41.89ZM299.66,409.25l.62,5.75h-14.28v-4.38c0-3.65.36-4.48,2.15-4.95,2.02-.53,2.11-.97,1.49-7.37-1.6-16.49-1.75-31.12-.43-41.01,1.34-10.02,1.33-10.21-.67-10.5-1.63-.23-2.1-1.15-2.35-4.54l-.3-4.25h28.11v77h-9v-68h-2.44c-3.22,0-3.45.49-4.79,10.51-1.09,8.14-.2,32.33,1.89,51.74ZM378.01,383.25v31.75h-10.01v-30.76c0-16.91.41-32.19.92-33.95l.91-3.2-5.66-.29-5.67-.3-.61-8.5h24.11v4.5c0,3.16-.41,4.5-1.38,4.5-.76,0-1.66,1.01-1.99,2.25-.33,1.24-.61,16.54-.62,34ZM344,338v77h-10v-33.88c0-33.05-.05-33.9-2-34.41-1.59-.42-2-1.36-2-4.62v-4.09h14Z"/>
    <path class="cls-1" d="M254.26,413.19c-1.81,1.81-3.56,2.3-9,2.52-3.72.15-7.68-.13-8.79-.61-4.91-2.11-4.95-2.39-5.27-36.24-.33-34.78.01-37.27,5.4-39.72,3.14-1.44,10.16-1.47,14.17-.07,6.06,2.11,6.37,4.18,6.03,39.91-.3,31.6-.33,31.99-2.54,34.21ZM48,116.02v93.98h-8v-103.02l109.5.52v8l-101.5.52ZM459.76,249.25l-.26,51.25-54.28.26c-3.32,0-6.44.03-9.38.05-37.56.19-44.78.23-45.8-2.27-.24-.59-.13-1.33,0-2.25.05-.3.1-.62.14-.96l.32-2.83,50.75-.26,50.75-.26v-93.98h8.02l-.26,51.25ZM192.37,414.49c-.47,1.21-2.63,1.51-10.98,1.51h-10.39v-4.5c0-4.48.02-4.5,3.5-4.5h3.5v-53.31l-2.08,1.88c-2.04,1.85-2.1,1.84-3.97-.6-2.48-3.22-2.43-5.23.18-7.57,1.17-1.04,3.22-3.61,4.55-5.71,2.25-3.53,2.71-3.78,6.62-3.5l4.2.31.26,34.25c.25,32.64.35,34.25,2.13,34.25,2,0,3.55,4.69,2.48,7.49ZM123.39,403.75l-1.74,12.25h-4.33c-3.93,0-4.32-.22-4.32-2.49s1.97-15.94,5-35.01c2.22-13.91,4.17-29.66,3.74-30.1-.26-.26-1.77-.56-3.36-.68-2.66-.2-2.9.07-3.19,3.58l-.32,3.81-8.37-.61-.58-16.56,25.58.56.31,3.71c.26,3.19-2.69,25.66-5.75,43.79-.51,3.02-1.71,11.01-2.67,17.75ZM241.2,406.8c1.71,1.71,5.48,1.48,6.19-.38.34-.87.61-14.36.61-29.97,0-27.36-.07-28.42-2-29.45-1.42-.76-2.58-.76-4,0-1.93,1.03-2,2.09-2,29.84,0,21.03.32,29.08,1.2,29.96Z"/>
    <path class="cls-2" d="M0,250V0h500v500H0v-250ZM123.39,403.75c.96-6.74,2.16-14.73,2.67-17.75,3.06-18.13,6.01-40.6,5.75-43.79l-.31-3.71-12.79-.28-12.79-.28.29,8.28.29,8.28,4.19.3,4.18.31.32-3.81c.29-3.51.53-3.78,3.19-3.58,1.59.12,3.1.42,3.36.68.43.44-1.52,16.19-3.74,30.1-3.03,19.07-5,32.84-5,35.01s.39,2.49,4.32,2.49h4.33l1.74-12.25ZM192.37,414.49c1.07-2.8-.48-7.49-2.48-7.49-1.78,0-1.88-1.61-2.13-34.25l-.26-34.25-4.2-.31c-3.91-.28-4.37-.03-6.62,3.5-1.33,2.1-3.38,4.67-4.55,5.71-2.61,2.34-2.66,4.35-.18,7.57,1.87,2.44,1.93,2.45,3.97.6l2.08-1.88v53.31h-3.5c-3.48,0-3.5.02-3.5,4.5v4.5h10.39c8.35,0,10.51-.3,10.98-1.51ZM254.26,413.19c2.21-2.22,2.24-2.61,2.54-34.21.34-35.73.03-37.8-6.03-39.91-4.01-1.4-11.03-1.37-14.17.07-5.39,2.45-5.73,4.94-5.4,39.72.32,33.85.36,34.13,5.27,36.24,1.11.48,5.07.76,8.79.61,5.44-.22,7.19-.71,9-2.52ZM299.66,409.25c-2.09-19.41-2.98-43.6-1.89-51.74,1.34-10.02,1.57-10.51,4.79-10.51h2.44v68h9v-77h-28.11l.3,4.25c.25,3.39.72,4.31,2.35,4.54,2,.29,2.01.48.67,10.5-1.32,9.89-1.17,24.52.43,41.01.62,6.4.53,6.84-1.49,7.37-1.79.47-2.15,1.3-2.15,4.95v4.38h14.28l-.62-5.75ZM344,376.5v-38.5h-14v4.09c0,3.26.41,4.2,2,4.62,1.95.51,2,1.36,2,34.41v33.88h10v-38.5ZM378.01,383.25c0-17.46.29-32.76.62-34,.33-1.24,1.23-2.25,1.99-2.25.97,0,1.38-1.34,1.38-4.5v-4.5h-24.11l.3,4.25.31,4.25,5.67.3,5.66.29-.91,3.2c-.51,1.76-.92,17.04-.92,33.95v30.76h10v-31.75ZM420.15,413.92c4.46-2.39,4.85-5.72,4.85-41.89v-34.03h-13v3.95c0,2.49.56,4.26,1.52,4.8,1.31.73,1.48,4.78,1.25,29.8-.17,17.56-.65,28.95-1.23,28.95-.52,0-1.59-2.02-2.38-4.5-1.05-3.3-1.56-12.29-1.9-33.75l-.48-29.25h-12.78v4.09c0,3.26.41,4.2,2,4.62,1.93.5,2,1.36,2,24.25,0,18,.36,24.9,1.47,28.61,1.6,5.31,1.31,6.09-2.47,6.6-2.16.28-2.54.9-2.81,4.58l-.3,4.25h11.12c6.12,0,12.03-.49,13.14-1.08ZM280.54,310.49c12.9-3.25,29.52-11.48,40.14-19.9,20.65-16.36,33.05-37.68,37.78-64.97,1.92-11.09,1.94-18.61.06-30.17-6.83-42.14-36.33-75-76.33-85.03-24.34-6.11-49.35-3.38-71.62,7.81-39.01,19.6-61.38,59.87-56.66,101.96,1.96,17.48,7.23,32.3,16.41,46.08,17.33,26.03,42,41.69,73.65,46.74,8.87,1.41,25.46.27,36.57-2.52ZM459.76,249.25l.26-51.25h-8.02v93.98l-50.75.26-50.75.26-.32,2.83c-.7,6.05-4.16,5.71,55.04,5.43l54.28-.26.26-51.25ZM48,163.01v-46.99l50.75-.26,50.75-.26v-8l-54.75-.26-54.75-.26v103.02h8v-46.99ZM241.2,406.8c-.88-.88-1.2-8.93-1.2-29.96,0-27.75.07-28.81,2-29.84,1.42-.76,2.58-.76,4,0,1.93,1.03,2,2.09,2,29.45,0,15.61-.27,29.1-.61,29.97-.71,1.86-4.48,2.09-6.19.38ZM241.25,304.29c-1.24-.23-2.25-.84-2.25-1.34,0-1.85,43.15-75.86,44.43-76.2,1-.27.92-.52,6.15,19.25,1.96,7.43,4.48,16.88,5.6,21,2.42,8.9,5.78,21.64,6.5,24.63.43,1.8-.4,2.56-5.34,4.83-13.86,6.4-24.45,8.58-40.66,8.4-6.7-.07-13.19-.33-14.43-.57ZM223.99,299.56c-6.35-2.34-16.39-7.72-22.57-12.11-5.82-4.12-20.44-18.76-22.4-22.41-1.16-2.17-2.84-1.65,53.98-16.51,14.02-3.67,26.81-7.09,28.41-7.6,1.6-.52,3.07-.78,3.26-.59.2.19-3.91,7.73-9.13,16.76-5.22,9.02-12.99,22.58-17.27,30.13-4.69,8.28-8.37,13.71-9.27,13.68-.82-.03-3.08-.63-5.01-1.35ZM307.06,279.75c-1.18-4.54-3.2-12.08-4.47-16.75s-3.56-13.23-5.08-19c-1.52-5.77-4.51-16.91-6.64-24.75-2.13-7.83-3.87-14.95-3.87-15.82,0-1.28,1.01-1.03,5.25,1.29,12.13,6.64,53.35,30.59,54.44,31.64,1.49,1.42-4.45,16.3-9.82,24.64-6.8,10.53-22.93,27-26.46,27-.66,0-2.16-3.71-3.35-8.25ZM169.98,249.61c-5.94-13.1-9.32-31.87-8.3-46.11.66-9.24,1.14-10.78,3.22-10.24,1.55.41,29.16,16.16,55.6,31.73,4.4,2.59,10.81,6.24,14.24,8.11,3.43,1.87,6.1,3.83,5.93,4.35-.17.53-5,2.16-10.74,3.63-10.52,2.7-51.91,13.61-55.21,14.56-1.4.4-2.41-.88-4.74-6.03ZM246.18,230.6c-4.03-2.37-7.89-4.94-8.59-5.71-.7-.76-2.25-5.06-3.44-9.54l-2.17-8.15,4.78-8.29,4.78-8.3,9.36-2.35,9.36-2.35,8.06,4.81,8.06,4.8,2.26,8.99,2.26,8.99-4.56,7.77c-2.51,4.28-5.31,8.18-6.22,8.67-.92.49-4.45,1.61-7.86,2.49-3.41.89-6.77,1.81-7.48,2.05-.7.24-4.57-1.51-8.6-3.88ZM310.26,205.68c-21.03-12.2-38.24-22.52-38.25-22.93,0-.41.59-.75,1.32-.75s13.22-3.19,27.75-7.09c14.53-3.9,28.8-7.72,31.72-8.5,2.91-.78,5.9-1.41,6.64-1.41,1.52,0,7.69,14.76,9.41,22.5,2.12,9.59,3.33,22.04,2.7,28-.89,8.5-1.67,12.51-2.41,12.43-.35-.04-17.85-10.05-38.88-22.25ZM224.41,218.02c-.5-.49-2.03-1.49-3.41-2.22s-5.88-3.3-10-5.72c-4.12-2.41-10.43-6.06-14-8.12-3.57-2.05-12.05-6.98-18.84-10.94l-12.35-7.21.68-3.58c.96-5.17,7.94-18.64,13.66-26.39,6.63-8.99,21.86-23.16,23.32-21.7.22.22,5.39,19.07,11.47,41.88,6.09,22.81,11.27,42.03,11.52,42.7.58,1.56-.86,2.48-2.05,1.3ZM228.57,193.92c-.27-.78-2.06-7.49-3.98-14.92s-5.76-21.99-8.53-32.36-4.8-19.25-4.51-19.72c1.78-2.87,19.36-8.6,32.45-10.57,10.69-1.61,27.5-1.24,29.38.63.82.82-2.4,6.64-28.19,51.02-4.63,7.98-9.56,16.52-10.95,19-4.19,7.44-5.1,8.55-5.67,6.92ZM251.02,174.39c1.82-3.24,5.42-9.49,7.99-13.89,2.57-4.4,8.88-15.31,14.03-24.25,7.48-12.99,9.78-16.25,11.48-16.25,4.89,0,19.6,7.16,28.98,14.1,8.49,6.28,22.28,21.52,20.81,22.99-.45.44-5.76,2.12-11.81,3.74s-24.05,6.44-40,10.71c-15.95,4.27-30.31,7.98-31.9,8.25l-2.9.48,3.32-5.88Z"/>
  </g>
</svg>