<?xml version="1.0" encoding="UTF-8"?>
<svg id="Layer_1" xmlns="http://www.w3.org/2000/svg" version="1.1" viewBox="0 0 64 64">
  <!-- Generator: Adobe Illustrator 30.1.0, SVG Export Plug-In . SVG Version: 2.1.1 Build 136)  -->
  <defs>
    <style>
      .st0 {
        fill: #3bb2bf;
      }

      .st1 {
        fill: #080326;
      }
    </style>
  </defs>
  <path class="st0" d="M46.7,21.4c0,.5-.4.9-.9.9h-27.7c-.5,0-.9-.4-.9-.9s.4-.9.9-.9h27.7c.5,0,.9.4.9.9Z"/>
  <path class="st0" d="M46.7,30.3c0,.5-.4.9-.9.9h-27.7c-.5,0-.9-.4-.9-.9s.4-.9.9-.9h27.7c.5,0,.9.4.9.9Z"/>
  <path class="st0" d="M46.7,13.4c0,.5-.4.9-.9.9h-27.7c-.5,0-.9-.4-.9-.9s.4-.9.9-.9h27.7c.5,0,.9.4.9.9Z"/>
  <path class="st1" d="M51,1.2H13c-3.8,0-6.9,3.1-6.9,6.9v47.9c0,3.8,3.1,6.9,6.9,6.9h38c3.8,0,6.9-3.1,6.9-6.9V8c0-3.8-3.1-6.9-6.9-6.9ZM54.4,56c0,1.8-1.5,3.4-3.4,3.4H13c-1.8,0-3.3-1.5-3.3-3.4V8c0-1.8,1.5-3.3,3.3-3.3h38c1.8,0,3.4,1.5,3.4,3.3v47.9Z"/>
  <path class="st0" d="M44.9,50.5c-1.5-.3-2.6-2.2-2.7-3.8,0-.5,0-1,.3-1.4.6-1,.7-1.7-.2-2.6-.9-.8-1.7-1.6-2.9-.6-.4.3-.9.4-1.2.5-1.5,0-3.8-1.4-4.1-2.5-.3-1.1-.7-1.8-1.9-1.7h-.3c-1.3,0-1.7.6-2,1.7-.3,1.1-2.6,2.5-4.1,2.5-.3-.1-.8-.2-1.2-.5-1.3-1-2-.3-2.9.6-.9.9-.8,1.6-.2,2.6,1,1.6-.4,4.8-2.4,5.2-1.2.3-1.4.8-1.5,1.6v1.2c0,.8.3,1.4,1.5,1.6,1.1.2,2,1.3,2.4,2.5h4.7c-1-1.1-1.6-2.6-1.7-4.1v-1.1c.3-3.9,3.6-6.9,7.5-6.9,3,0,5.7,1.9,6.8,4.5.3.8.6,1.6.6,2.4v1.1c-.1,1.6-.8,3-1.7,4.1h4.7c.4-1.2,1.3-2.3,2.4-2.5,1-.2,1.4-.7,1.5-1.3,0-.1,0-.2,0-.3v-1.2c0-.8-.3-1.4-1.5-1.6Z"/>
</svg>