<?xml version="1.0" encoding="UTF-8"?>
<svg id="Layer_1" xmlns="http://www.w3.org/2000/svg" version="1.1" xmlns:xlink="http://www.w3.org/1999/xlink" viewBox="0 0 70 70">
  <!-- Generator: Adobe Illustrator 30.1.0, SVG Export Plug-In . SVG Version: 2.1.1 Build 136)  -->
  <defs>
    <style>
      .st0 {
        fill: #3bb2bf;
      }

      .st1 {
        fill: #080326;
      }
    </style>
  </defs>
  <g id="Gardenscapes__Services">
    <path class="st0" d="M36.8,3.8s-1.3.2-1.4.2c-.7.1-1.4.2-2,.3-1.4.3-2.8.6-4,1.4-.1,0-.3.2-.4.3-.7.5-1.4,1.4-1.9,2.2,0,0,0,.1,0,.2-.6,1.1-1.1,2.3-1.3,3.6,0,.4-.1.7-.2,1.1,0,.1-.1,1-.1,1.5,0,0,.2-.1.4-.3.3-.2.6-.5,1-.8.4-.3.9-.8,1.4-1.2.3-.2.5-.5.8-.7.1-.1.2-.2.4-.3h0c.2-.1.3-.3.5-.4.3-.3.5-.5.8-.8.3-.3.5-.5.8-.8.2-.3.5-.5.7-.7,0,0,0,0,0,0h.1c0,0,0,.1-.1.2-.2.2-.4.5-.7.8-.2.3-.5.5-.7.8-.3.3-.5.5-.8.8-.2.2-.4.4-.6.6h0c0,0-.1.1-.2.2-.3.3-.5.5-.8.7-.5.5-1,.9-1.4,1.3-.4.4-.8.7-1,.9-.2.2-.3.3-.4.3,11.8-.6,11.1-11,11.1-11Z"/>
    <path class="st0" d="M22,11.3c-.4-.5-.9-1-1.4-1.4-5.2-4.3-11.2-1-11.2-1,0,0,.7,1,.8,1.1,1.2,1.8,2.5,3.8,4.4,4.9.8.4,1.9.7,2.7.7,1.6.2,3.4,0,4.9-.6.2,0,1.8-.6,1.7-.7-.6-1.2-1.3-2.3-2.1-3.1Z"/>
    <path class="st0" d="M14.2,41.6h.4c.9.4,1.8.7,2.7,1,0-.4.2-.8.4-1.3.7-1.3,2.2-2,4.3-2s.3,0,.5,0h.3s1.6.4,4.2.4,6.1-.3,10.3-1.7h.2c.5-.2,1.1-.3,1.6-.5-1.4-.9-2.7-1.7-4-2.3-1.2-.6-2.3-1-3.5-1.3-11.2-3.3-18.4,5.1-19.6,6.8.7.2,1.4.5,2.2.8Z"/>
    <path class="st1" d="M69.7,44.2l-2.8-2c-.2-.1-.8-.4-.9-.5-.2-.1-.4-.3-.6-.4-2.5-1.6-5-3.3-7.9-4-6.5-1.5-13.2,1.3-19.5,2.7-8.7,2.8-15.6,1.4-15.6,1.4-4.7-.2-2.5,3.2-2.5,3.2,6,3.7,19.5,1.2,19.5,1.2,3-.5,1.8.5,1.8.5-1.2,1-3.5,1.3-5,1.5-3,.4-6.1.3-9.1,0-3.2-.4-6.1-1.5-9.2-2.6-1.5-.5-3-1-4.5-1.5-5.9-2.4-8.5-2.5-8.5-2.5-6,.2-3.3,2.4-3.3,2.4,7.3,2.2,12.7,5.9,12.7,5.9,5.5,3.9,16.4,8,16.4,8,12,5.4,21.2-2.5,21.2-2.5,2.6-1.7,5.6-2.5,8.6-1.8.2,0,2.2,1,2.2,1,.7.5,1.6.3,2-.4l5.3-7.5c.5-.7.3-1.6-.4-2Z"/>
    <path class="st0" d="M23.4,31.4c-.2-.5-.2-1,0-1.5l.2-.6c.4-.9.8-1.8,1.1-2.8,1.1-3.4,1.1-6.3-.2-9,0-.1-.1-.3-.1-.5,0-.6.1-.8.3-.9,0,0,.1,0,.2,0,.1,0,.3.1.5.4,0,.1.2.2.2.4.9,1.6,1.4,3.4,1.5,5.8,0,.2,0,.5,0,.8,0,.6,0,1.2-.2,1.7-.3,2-.9,4-1.9,6.3-.2.4-.5.6-.8.6-.3,0-.6-.2-.8-.6Z"/>
    <image width="1600" height="2400" transform="translate(-435.7 -155.1) scale(.2)" xlink:href="../AdobeColor-color theme_Edut710 - theme picture.jpeg"/>
  </g>
</svg>