<?xml version="1.0" encoding="UTF-8"?>
<svg id="Layer_1" xmlns="http://www.w3.org/2000/svg" version="1.1" viewBox="0 0 70 70">
  <!-- Generator: Adobe Illustrator 30.1.0, SVG Export Plug-In . SVG Version: 2.1.1 Build 136)  -->
  <defs>
    <style>
      .st0 {
        fill: #3bb2bf;
      }

      .st1 {
        fill: #080326;
      }
    </style>
  </defs>
  <g id="Video__Marketing">
    <path class="st0" d="M24.6,22.2h0c0,2.8,0,5.6,0,8.3,0,2.9,2,4,4.6,2.7.1,0,.3-.1.4-.2,4.6-2.6,9.2-5.3,13.7-7.9.4-.3.9-.6,1.2-.9,1.2-1.2,1.2-2.7,0-3.9-.4-.4-.9-.7-1.3-1-1.3-.8-2.6-1.5-3.9-2.3-3.4-1.9-6.7-3.9-10.2-5.8-2.4-1.3-4.4-.2-4.5,2.5-.1,2.8,0,5.7,0,8.5Z"/>
    <g>
      <path class="st1" d="M34,40.6H11.8c-.5,0-.9-.2-1.1-.6s-.2-.8,0-1.2c.3-.4.8-.4.9-.4h18.4c1.3,0,2.6,0,3.9,0-.1.4-.2.7-.2,1.1,0,.4,0,.8.2,1.1Z"/>
      <circle class="st1" cx="37" cy="39.4" r="2.5"/>
      <path class="st1" d="M59.4,39.7c0,.6-.4,1-1.1,1h-18.4l.2-.4c0-.3.1-.5.1-.8s0-.5,0-.6v-.4c-.1,0,.3,0,.3,0,.5,0,1,0,1.5,0h16.2c.4,0,.7,0,1,.3.3.3.3.7.2.9Z"/>
    </g>
    <g>
      <path class="st1" d="M64.2,3.1c-19.3,0-38.7,0-58,0C2.2,3.1.6,4.7.6,8.6c0,13.6,0,27.3,0,40.9,0,3.8,1.6,5.5,5.4,5.5h29c9.7,0,19.4,0,29.2,0,3.6,0,5.2-1.7,5.2-5.3V8.3c0-3.5-1.8-5.2-5.2-5.2ZM35,52c-1.4,0-2.5-1.1-2.5-2.5s1.1-2.5,2.5-2.5,2.5,1.1,2.5,2.5-1.1,2.5-2.5,2.5ZM64.6,44.5c-19.7,0-39.3,0-59,0-2,0-2.1,0-2.1-2.1V8.8c0-2.4,0-2.4,2.5-2.4,9.7,0,19.3,0,29,0s19.6,0,29.3,0c2.1,0,2.2,0,2.2,2.1,0,11.3,0,22.7,0,34,0,1.5-.4,2-2,2Z"/>
      <path class="st1" d="M46.3,65s0,0-.1,0c0,0-.1,0-.2,0-.8-.1-1.5-.4-2.3-.8-1.3-.6-3.1-1.7-3.1-3.3v-3h-11.3v3c0,1.6-1.8,2.7-3.1,3.3-.7.3-1.5.6-2.3.8,0,0-.1,0-.2,0,0,0,0,0-.1,0-.3.2-.5.5-.5.8h0c0,.4.2.7.5.9,0,0,.2,0,.3.1h22c.1,0,.2,0,.3-.1.3-.2.5-.5.5-.8h0c0-.4-.2-.7-.5-.9Z"/>
    </g>
  </g>
</svg>