<svg id="svg7064" height="512" viewBox="0 0 8.4666665 8.4666669" width="512" xmlns="http://www.w3.org/2000/svg" xmlns:svg="http://www.w3.org/2000/svg"><g id="layer1" transform="translate(0 -288.533)"><path id="path872" d="m3.3350093 288.53511c-1.8385556 0-3.3350093 1.49646-3.3350093 3.33501s1.4964537 3.33346 3.3350093 3.33346c.8239123 0 1.5773765-.30198 2.1596186-.79875l2.5155942 2.51508a.26510905.26510905 0 1 0 .3745752-.37509l-2.5150777-2.51508c.4968183-.58226.7987489-1.33567.7987489-2.15962 0-1.83855-1.4949037-3.33501-3.3334592-3.33501zm0 .52905c1.5526331 0 2.8044043 1.25333 2.8044043 2.80596s-1.2517712 2.80595-2.8044043 2.80595c-1.5526332 0-2.80595438-1.25332-2.80595438-2.80595s1.25332118-2.80596 2.80595438-2.80596z" font-variant-ligatures="normal" font-variant-position="normal" font-variant-caps="normal" font-variant-numeric="normal" font-variant-alternates="normal" font-feature-settings="normal" text-indent="0" text-align="start" text-decoration-line="none" text-decoration-style="solid" text-decoration-color="rgb(0,0,0)" text-transform="none" text-orientation="mixed" white-space="normal" shape-padding="0" isolation="auto" mix-blend-mode="normal" solid-color="rgb(0,0,0)" solid-opacity="1" vector-effect="none"/></g></svg>