<?xml version="1.0" encoding="UTF-8"?>
<svg id="Layer_1" xmlns="http://www.w3.org/2000/svg" version="1.1" viewBox="0 0 70 70">
  <!-- Generator: Adobe Illustrator 30.1.0, SVG Export Plug-In . SVG Version: 2.1.1 Build 136)  -->
  <defs>
    <style>
      .st0 {
        fill: #3bb2bf;
      }

      .st1 {
        fill: #080326;
      }
    </style>
  </defs>
  <g id="Press_Release">
    <path class="st0" d="M19.8,9c0-1.6,0-3,0-4.5,0-1.4,1.3-2.4,2.9-2.4,1.1,0,2.1,0,3.3,0,0-.3,0-.5,0-.8,0-.7.6-1.3,1.3-1.3,1.9,0,3.7,0,5.6,0,.7,0,1.2.5,1.3,1.2,0,.2,0,.5,0,.8,1,0,2,0,3,0,2,0,3.1,1.1,3.1,3.1,0,1,0,2,0,3,0,.6-.1.8-.8.8-4.7,0-9.4,0-14.1,0s-3.3,0-4.9,0h-.8Z"/>
    <path class="st0" d="M65.1,32.7s0,0,0,0c0,0,0,0,0,0-.3-.8-.7-1.5-1.3-2-.2-2.2-.7-4.3-1.4-6.5-.4-1.1-1.4-1.5-2.3-1.1-2.7,1.3-5.3,2.5-8,3.8-1.4.7-2.7,1.4-4.3,1.4-1,0-2.1,0-3.1,0-1.6,0-2.8.7-3.6,2,0,0,0,0,0,.1,0,0,0,0,0,0,0,0,0,0,0,0,0,0-.4.7-.7,1.5-.2.8-.3,1.7,0,2.8,0,0,0,0,0,0,0,0,0,0,0,.1h0c.3,1.1.9,2,1.8,2.7,0,0,.1.2.1.3.4,2.3.8,4.6,1.3,6.9.2.9.7,1.3,1.7,1.1.9-.2,1.8-.3,2.8-.5.8-.2,1.2-.7,1.1-1.6-.2-1.1-.7-2-1.3-2.9-.5-.7-.9-1.5-.9-2.5,1.3,0,2.4.2,3.5.7,2.9,1.3,5.7,2.7,8.5,4.1.3.1.6.3.9.4,1.1.6,2.1.2,2.5-1,.6-1.9,1.1-3.9,1.3-5.9.6-.5,1-1.1,1.3-1.8,0-.2.1-.3.2-.5.2-.8,0-1.8,0-1.9ZM60.5,41.7c-.9-.4-1.7-.8-2.5-1.2-2.3-1.1-4.6-2.2-6.9-3.3-1.2-.5-2.5-.8-3.9-.8-.8,0-1.6,0-2.3,0-1.1,0-1.8-.5-2.3-1.4-.6-1.2-.4-3,.5-3.9.4-.4.9-.7,1.5-.7,1.3,0,2.7,0,4-.1,1.7-.1,3.2-.9,4.7-1.7,2.3-1.1,4.7-2.2,7-3.3,0,0,.1,0,.2,0,1.8,5.5,1.8,10.9,0,16.4Z"/>
    <g>
      <path class="st1" d="M54.8,44.5c-.9-.4-1.9-.9-2.8-1.3v.7c0,.3,0,.6,0,.8v12h-8.3c-1.6,0-3,1.3-3,3v7.1H7.8V7.6h9.3v-3.1H7.6c-1.6,0-2.8,1.3-2.8,2.8v51.2h0v8.5c0,1.6,1.3,2.8,2.8,2.8h35.3c.2,0,.5.1.8.1h8.4c1.6,0,3-1.3,3-3v-22.3h-.2ZM43.2,66.6v-4.4c0-1.6,1.3-3,3-3h5.6l-8.6,7.4ZM52.2,4.5h-9.5v3.1h9.3v16.2c1-.5,2-1,3.1-1.5V7.3c0-1.6-1.3-2.8-2.9-2.8Z"/>
      <path class="st1" d="M48.6,42.2h0c0,0,0,0,0,0,0,0,0,0,0,0Z"/>
      <path class="st1" d="M19.8,15.9h20.3v3.9h-20.3v-3.9Z"/>
      <path class="st1" d="M11,51.3h15.7v3h-15.7v-3Z"/>
      <path class="st1" d="M48.8,23v2.3c-.4.1-.7.2-1.1.2h-.3c-.7,0-1.5,0-2.2,0h-.6c-2.6,0-4.7,1.2-6.1,3.4l-.2.2v.2c-.3.4-.6,1.1-.8,1.9-.2.6-.3,1.2-.3,1.9H11v-10.2h37.8,0Z"/>
      <path class="st1" d="M41.4,47.3H11v-10.2h27c.4.9.9,1.6,1.5,2.3l.3,1.9c.3,1.4.5,2.9.8,4.3.1.7.4,1.3.7,1.8Z"/>
    </g>
  </g>
</svg>