<?xml version="1.0" encoding="UTF-8"?>
<svg id="Layer_1" xmlns="http://www.w3.org/2000/svg" version="1.1" viewBox="0 0 128 128">
  <!-- Generator: Adobe Illustrator 30.1.0, SVG Export Plug-In . SVG Version: 2.1.1 Build 136)  -->
  <defs>
    <style>
      .st0 {
        fill: #3bb2bf;
      }

      .st1 {
        fill: #080326;
      }
    </style>
  </defs>
  <path class="st0" d="M47.3,72.8c0,9.5,7.7,17.3,17.3,17.3,9.5,0,17.3-7.7,17.3-17.3,0-9.5-7.7-17.3-17.3-17.3h0c-9.5,0-17.3,7.7-17.3,17.3ZM73.4,65.5h0c1.2,1.2,1.2,3.2,0,4.4h0s-10,10-10,10c-1.2,1.2-3.2,1.2-4.4,0l-4.9-4.9c-1.2-1.2-1.2-3.2,0-4.4s3.2-1.2,4.4,0c0,0,0,0,0,0l2.7,2.7,7.8-7.8c1.2-1.2,3.2-1.2,4.4,0h0Z"/>
  <path class="st1" d="M1.4,96.5c1,7.4,7.2,12.9,14.6,12.9h95.9c7.4,0,13.7-5.5,14.6-12.9H1.4Z"/>
  <g>
    <ellipse class="st0" cx="29.9" cy="29.4" rx="28.4" ry="10.4"/>
    <path class="st0" d="M29.9,56.5c15.7,0,28.4-4.7,28.4-10.4v-6.5c-5.9,4.7-17.5,7-28.4,7s-22.5-2.2-28.4-7v6.5c0,5.7,12.7,10.4,28.4,10.4Z"/>
    <path class="st0" d="M29.9,73.3c3.8,0,7.6-.3,11.3-.9,0-3.6.9-7.1,2.6-10.3-4.6.8-9.2,1.3-13.9,1.3-11,0-22.5-2.2-28.5-7v6.4c0,5.7,12.7,10.4,28.5,10.4Z"/>
    <path class="st0" d="M29.9,90.1c5.7,0,11.5-.6,17-2.1-2.2-2.5-3.8-5.5-4.8-8.8-4.1.6-8.1,1-12.3,1-11,0-22.5-2.2-28.5-7v6.4c0,5.7,12.7,10.4,28.5,10.4Z"/>
  </g>
  <path class="st1" d="M64.6,27.2h42.6v62.3h8.6V23.4c0-.8-.2-1.7-.6-2.4-.8-1.5-2.4-2.4-4.2-2.4h-53.1c3.6,2.2,6,5.1,6.7,8.6Z"/>
</svg>