<?xml version="1.0" encoding="UTF-8"?>
<svg id="Layer_1" xmlns="http://www.w3.org/2000/svg" version="1.1" viewBox="0 0 64 64">
  <!-- Generator: Adobe Illustrator 30.1.0, SVG Export Plug-In . SVG Version: 2.1.1 Build 136)  -->
  <defs>
    <style>
      .st0 {
        fill: #3bb2bf;
      }

      .st1 {
        fill: #080326;
      }
    </style>
  </defs>
  <path class="st0" d="M27.8,43.4l-.5-1c-.1-.2-.3-.3-.5-.3h-4.2c-.2,0-.4,0-.5.3l-.5,1c-.1.2-.1.4,0,.5l1,2h.1c0,0,2.1,0,2.1,0h2.1s.1,0,.1,0l1-2c-.1,0-.1-.3-.2-.5Z"/>
  <g>
    <path class="st1" d="M44,45s-11.3-3.8-11.6-3.9c0,0,0,.3,0,.4-.6,2.1-1.1,4.1-1.7,6.1-.7,2.4-1.6,4.8-2.4,7.1h0c-.1.4-.2.6-.4.9-.2-1.1-.3-2.5-.5-3.9-.2-1.5-.4-3-.5-4.1,0,0-.1-.2-.2-.2h-3.8c-.1,0-.2,0-.2.2-.1,1-.3,2.5-.5,4.1-.2,1.4-.4,2.8-.5,3.9-.1-.3-.3-.5-.4-.8h0c-.8-2.5-1.7-4.8-2.4-7.2-.6-2-1.1-4.1-1.7-6.1,0,0-.1-.3-.1-.4-.4,0-11.7,3.9-11.7,3.9-4.9,1.7-4.6,4.9-4.6,4.9v6.5c.5,4,3.5,3.9,3.5,3.9h41s3.1,0,3.5-3.9v-6.5c0,0,.2-3.3-4.7-4.9Z"/>
    <path class="st1" d="M36.4,24.2c0-1-.5-2.2-1.5-2.5h0v-.5c0-.4,0-.7,0-1,.2-1,.4-2,.4-2.9,0-3.2-1.5-5.9-4.4-7.2-.3-.1-.6-.3-.9-.4-1.7-.6-3.6-1-5.5-1h-1.2c-1.1.1-2.7.2-4,.8-.1.1-.3.2-.4.2-.5.3-1,.8-1.3,1.3-.1.1-.1.2-.2.3-.2.2-.2.3-.4.5-.3.3-.6.4-.9.5-.6.3-1.1.7-1.3,1.2-.4.8-.7,1.7-.7,2.8s0,2.3.1,3.1c0,.4.1.8.2,1.2h0c.1.4.1.6.1.9h-.1c-1.1.3-1.7,1.5-1.6,2.5v.8c0,.4.1.7.1,1.1s.1.4.1.5c.2,1.6,1,2.8,2.2,3.5,0,0,0,.1.1.1.7,2.9,2.2,5.1,4.4,6.6.3.2.6.4.9.5.4.2.9.4,1.5.6h.1c.4.2.8.3,1.3.4.4,0,.8,0,1.2,0h.1c.4,0,.7,0,1.1,0s.8-.2,1.2-.4h.1c.5-.2,1.1-.4,1.5-.6.3-.2.6-.4.9-.5,1.2-.8,2.2-1.9,3-3.1.3-.6.7-1.2,1-1.9,0-.3.2-.6.2-.8,0-.3,0-.6.3-.7.2-.2.4-.4.6-.6s.3-.2.4-.3c1-.9,1.2-2,1.3-2.8,0-.2,0-.4,0-.5,0-.3,0-.7,0-1.1-.3,0-.2-.2-.3-.6ZM34.4,25c0,.3,0,.6,0,.9s0,.4,0,.6c0,.7-.3,1.2-.6,1.5h0q0,.2-.2.3h0c-.3.3-.6.6-.9.9-.4.5-.5,1.1-.6,1.5,0,.2-.1.4-.2.5-.3.6-.5,1.2-.8,1.6-.6,1-1.4,1.9-2.4,2.5-.2.2-.5.3-.7.4-.3.2-.8.3-1.2.5q-.1,0-.2,0c-.3,0-.6.2-.9.3-.3,0-.5,0-.8,0s-.5,0-.8,0-.6,0-.9-.3h-.2c-.4-.3-.9-.4-1.2-.6-.2,0-.5-.3-.7-.4-1.8-1.2-3-3-3.6-5.5-.2-.6-.5-1-.8-1.2h-.1c0-.1-.1-.1-.1-.1-.9-.5-1.2-1.5-1.2-2s-.1-.4-.1-.6c0-.3-.1-.6-.1-.9v-.7h0v-.3c0-.2.1-.4.1-.4h1c0-.1.1-.1.1-.2.4-.2.6-.6.6-1.1.1-1.2,0-1.9.9-3,.7-.9,1.7-1.5,2.8-1.8,1-.3,1.9-.2,2.7.5.3.2.7.5,1.1.7,1.1.6,2.2.7,3.3.2s2.4-.7,3.8-.5c1,.1,1.6.6,1.8,1.5v.3c0,.1.2.3.2.5s0,.4,0,.5v.3h0c0,.5-.2.9,0,1.3,0,.3.3.4.4.6,0,.1.2.1.3.1.3.1.5.1.6.1,0,.1,0,.3,0,.4v.2h0c0,.3,0,.6,0,.8Z"/>
    <g>
      <path class="st0" d="M62.7,18.3c-2.2-.8-3.9-2.3-5.1-4.5-1.2-2.3-1.5-4.3-1-6.4,0-.6,0-1-.5-1.3-.4-.3-.8-.5-1.2-.8h-.2c-.6-.5-1.3-.9-2-1.3-.5-.3-1-.2-1.2,0,0,0-.2,0-.3.2l-.2.3c-.4.3-.8.7-1.3.9-.2,0-.4.2-.6.3-1.7.6-3.4.9-4.8.8-2,0-3.8-.9-5.4-2.3-.5-.5-1-.4-1.4-.2-1.1.7-2.3,1.3-3.5,2-.5.3-.7.6-.6,1.3,0,.3,0,.6,0,1,2.9,1.7,4.8,4.7,5.1,8.1.6-.8,1.4-1.5,2.4-2,1.3-.7,2.8-1.1,4.3-1,.6,0,1.2.1,1.8.3,2.1.6,3.8,2.1,4.8,4,2,3.8.5,8.4-3.2,10.6-1.4.7-2.9,1.1-4.4,1-1.9-.1-3.7-.9-5-2.2v.2c0,.8-.4,2.9-2.2,4.6,0,.1-.2.2-.3.3h-.3c0,.2-.2.5-.3.8-.4.9-.8,1.7-1.2,2.4-.3.4-.5.8-.8,1.2,1,.6,1.8,1.1,2.7,1.6,0,0,.3.2.5.2s.3,0,.5,0c0,0,.2,0,.3-.3.4-.4.8-.7,1.3-1,1.5-.9,3.7-1.2,5.8-1,2.2.2,4,1,5.1,2.2.2.2.4.4.8.4s.5,0,.8-.2c.6-.4,1.2-.7,1.7-.9.4-.2,1-.6,1.7-.9.8-.5.8-1,.7-1.5-.4-1.6,0-3.6.9-5.5.9-1.9,2.4-3.5,3.9-4.4.5-.3,1-.5,1.6-.6.2,0,.6-.2.7-.5,0-.1,0-.3,0-.5,0-1.4,0-2.9,0-4.2s-.3-.8-.7-1Z"/>
      <circle class="st0" cx="44.7" cy="21.1" r="4.6"/>
    </g>
  </g>
</svg>